<svg width="200" height="200" viewBox="0 0 200 200" fill="none" xmlns="http://www.w3.org/2000/svg">
<path d="M0 11C0 4.92487 4.92487 0 11 0H189C195.075 0 200 4.92487 200 11V189C200 195.075 195.075 200 189 200H11C4.92487 200 0 195.075 0 189V11Z" fill="#633BFE"/>
<path d="M145.742 120.439C141.122 120.437 136.654 122.093 133.152 125.107L116.611 112.24C117.938 109.572 118.628 106.633 118.626 103.653C118.624 102.877 118.577 102.1 118.484 101.329L128.956 97.8429C131.3 101.915 135.045 104.997 139.493 106.513C143.941 108.029 148.788 107.876 153.132 106.083C157.476 104.291 161.02 100.98 163.103 96.7678C165.187 92.5558 165.668 87.7301 164.457 83.1896C163.246 78.6492 160.426 74.7038 156.522 72.0885C152.618 69.4733 147.896 68.3665 143.236 68.9745C138.576 69.5825 134.297 71.8637 131.194 75.3932C128.092 78.9226 126.378 83.4595 126.373 88.1586C126.375 88.9355 126.422 89.7116 126.515 90.4829L116.043 93.9692C113.994 90.3997 110.858 87.5782 107.093 85.9162C103.328 84.2543 99.1299 83.8388 95.1118 84.7304L89.8564 72.9156C93.7636 70.1294 96.4973 65.9918 97.5277 61.3049C98.5581 56.618 97.8118 51.7155 95.4335 47.5474C93.0552 43.3793 89.2142 40.2426 84.6549 38.745C80.0956 37.2475 75.1426 37.4958 70.756 39.4418C66.3693 41.3878 62.8613 44.893 60.9118 49.2781C58.9623 53.6631 58.7101 58.6157 60.2041 63.1761C61.6981 67.7364 64.832 71.5798 68.9983 73.9613C73.1645 76.3429 78.0666 77.093 82.7545 76.0663L88.0099 87.881C84.0831 90.6737 81.3418 94.8331 80.3241 99.5429C79.3064 104.253 80.0857 109.173 82.5091 113.338L64.3927 129.478C60.5403 126.594 55.7542 125.243 50.9623 125.687C46.1703 126.131 41.7139 128.338 38.4569 131.881C35.1999 135.424 33.3743 140.049 33.334 144.862C33.2937 149.674 35.0416 154.33 38.2388 157.926C41.436 161.523 45.8548 163.805 50.6386 164.329C55.4224 164.853 60.2305 163.582 64.1307 160.763C68.0309 157.944 70.7455 153.777 71.7482 149.071C72.7509 144.364 71.9703 139.453 69.5578 135.289L87.6354 119.148C91.1544 121.793 95.4714 123.156 99.8712 123.012C104.271 122.867 108.489 121.224 111.827 118.354L128.368 131.221C126.502 134.995 125.916 139.274 126.699 143.41C127.482 147.546 129.591 151.315 132.708 154.146C135.824 156.976 139.778 158.714 143.97 159.096C148.163 159.479 152.366 158.485 155.943 156.265C159.52 154.045 162.276 150.72 163.795 146.794C165.313 142.867 165.511 138.553 164.358 134.504C163.205 130.455 160.765 126.892 157.406 124.354C154.047 121.816 149.952 120.442 145.742 120.439ZM145.742 76.5376C148.041 76.5376 150.288 77.2191 152.199 78.4961C154.11 79.773 155.599 81.588 156.479 83.7114C157.358 85.8349 157.589 88.1715 157.14 90.4258C156.692 92.6801 155.585 94.7507 153.96 96.376C152.334 98.0012 150.264 99.108 148.009 99.5564C145.755 100.005 143.418 99.7747 141.295 98.8951C139.171 98.0155 137.356 96.526 136.079 94.615C134.802 92.7039 134.121 90.4571 134.121 88.1586C134.121 85.0765 135.345 82.1207 137.525 79.9413C139.704 77.7619 142.66 76.5376 145.742 76.5376ZM66.9752 57.1691C66.9752 54.8706 67.6568 52.6238 68.9338 50.7127C70.2108 48.8017 72.0258 47.3122 74.1493 46.4326C76.2728 45.553 78.6095 45.3229 80.8638 45.7713C83.1181 46.2197 85.1889 47.3265 86.8141 48.9517C88.4394 50.577 89.5462 52.6476 89.9946 54.9019C90.4431 57.1562 90.2129 59.4928 89.3333 61.6163C88.4537 63.7398 86.9642 65.5547 85.0531 66.8317C83.142 68.1086 80.8951 68.7902 78.5966 68.7902C75.5144 68.7902 72.5585 67.5658 70.3791 65.3864C68.1996 63.207 66.9752 60.2512 66.9752 57.1691ZM52.7714 156.594C50.4729 156.594 48.226 155.912 46.3149 154.635C44.4038 153.358 42.9142 151.544 42.0347 149.42C41.1551 147.297 40.9249 144.96 41.3733 142.706C41.8217 140.451 42.9286 138.381 44.5538 136.755C46.1791 135.13 48.2498 134.023 50.5042 133.575C52.7585 133.127 55.0952 133.357 57.2187 134.236C59.3422 135.116 61.1572 136.605 62.4342 138.517C63.7111 140.428 64.3927 142.674 64.3927 144.973C64.3927 148.055 63.1683 151.011 60.9889 153.19C58.8095 155.37 55.8536 156.594 52.7714 156.594ZM99.2568 115.275C96.9583 115.275 94.7114 114.593 92.8003 113.316C90.8892 112.039 89.3996 110.224 88.52 108.101C87.6405 105.977 87.4103 103.641 87.8587 101.386C88.3071 99.132 89.414 97.0613 91.0392 95.4361C92.6645 93.8108 94.7352 92.704 96.9896 92.2556C99.2439 91.8072 101.581 92.0374 103.704 92.9169C105.828 93.7965 107.643 95.286 108.92 97.1971C110.197 99.1082 110.878 101.355 110.878 103.653C110.878 106.736 109.654 109.691 107.474 111.871C105.295 114.05 102.339 115.275 99.2568 115.275ZM145.742 151.429C143.444 151.429 141.197 150.747 139.286 149.47C137.375 148.194 135.885 146.379 135.005 144.255C134.126 142.132 133.896 139.795 134.344 137.541C134.793 135.286 135.899 133.216 137.525 131.591C139.15 129.965 141.221 128.859 143.475 128.41C145.729 127.962 148.066 128.192 150.189 129.071C152.313 129.951 154.128 131.441 155.405 133.352C156.682 135.263 157.364 137.509 157.364 139.808C157.364 142.89 156.139 145.846 153.96 148.025C151.78 150.205 148.824 151.429 145.742 151.429Z" fill="white"/>
</svg>
