<svg width="795" height="226" viewBox="0 0 795 226" fill="none" xmlns="http://www.w3.org/2000/svg">
<rect y="0.913635" width="225.086" height="225.086" rx="27.5106" fill="#633BFE"/>
<path d="M164.023 133.959C158.823 133.956 153.795 135.821 149.854 139.212L131.238 124.731C132.731 121.729 133.507 118.421 133.505 115.068C133.503 114.193 133.45 113.32 133.345 112.452L145.131 108.528C147.769 113.112 151.984 116.579 156.99 118.286C161.996 119.992 167.451 119.82 172.34 117.802C177.228 115.785 181.217 112.058 183.562 107.318C185.906 102.578 186.448 97.1469 185.085 92.0369C183.723 86.927 180.549 82.4867 176.155 79.5434C171.761 76.6001 166.447 75.3545 161.203 76.0387C155.958 76.723 151.142 79.2903 147.65 83.2625C144.159 87.2347 142.23 92.3407 142.225 97.6292C142.226 98.5035 142.28 99.3769 142.384 100.245L130.599 104.169C128.293 100.151 124.764 96.9759 120.526 95.1055C116.288 93.2351 111.564 92.7675 107.042 93.771L101.127 80.4742C105.525 77.3385 108.601 72.682 109.761 67.4072C110.92 62.1324 110.081 56.6149 107.404 51.924C104.727 47.2331 100.404 43.7029 95.2733 42.0175C90.1421 40.3321 84.568 40.6116 79.6311 42.8017C74.6942 44.9918 70.7462 48.9367 68.5521 53.8717C66.3581 58.8068 66.0743 64.3806 67.7557 69.513C69.4371 74.6454 72.964 78.9708 77.6529 81.6511C82.3417 84.3313 87.8587 85.1755 93.1345 84.02L99.0492 97.3168C94.6298 100.46 91.5447 105.141 90.3993 110.441C89.254 115.742 90.131 121.279 92.8584 125.966L72.4697 144.131C68.134 140.886 62.7476 139.365 57.3546 139.865C51.9616 140.364 46.9462 142.849 43.2807 146.836C39.6151 150.823 37.5605 156.029 37.5152 161.445C37.4698 166.86 39.4369 172.1 43.0352 176.148C46.6334 180.196 51.6065 182.764 56.9903 183.354C62.3742 183.943 67.7853 182.513 72.1747 179.341C76.5642 176.168 79.6193 171.479 80.7478 166.181C81.8762 160.884 80.9977 155.357 78.2826 150.671L98.6277 132.506C102.588 135.482 107.447 137.016 112.398 136.854C117.35 136.691 122.097 134.842 125.854 131.612L144.47 146.093C142.369 150.34 141.71 155.156 142.591 159.811C143.472 164.466 145.846 168.708 149.353 171.893C152.861 175.078 157.31 177.034 162.029 177.465C166.747 177.895 171.477 176.776 175.503 174.278C179.529 171.78 182.631 168.038 184.34 163.619C186.049 159.2 186.272 154.344 184.974 149.788C183.677 145.231 180.93 141.221 177.149 138.365C173.369 135.509 168.761 133.962 164.023 133.959ZM164.023 84.5505C166.61 84.5505 169.138 85.3175 171.289 86.7546C173.44 88.1917 175.116 90.2344 176.106 92.6242C177.096 95.014 177.355 97.6437 176.851 100.181C176.346 102.718 175.1 105.048 173.271 106.877C171.442 108.706 169.112 109.952 166.575 110.457C164.037 110.961 161.408 110.702 159.018 109.712C156.628 108.722 154.585 107.046 153.148 104.895C151.711 102.745 150.944 100.216 150.944 97.6292C150.944 94.1605 152.322 90.8339 154.775 88.3811C157.227 85.9284 160.554 84.5505 164.023 84.5505ZM75.3761 62.7526C75.3761 60.1658 76.1432 57.6372 77.5803 55.4864C79.0175 53.3356 81.0601 51.6593 83.45 50.6694C85.8399 49.6795 88.4697 49.4205 91.0067 49.9251C93.5438 50.4298 95.8743 51.6754 97.7034 53.5045C99.5326 55.3336 100.778 57.664 101.283 60.201C101.788 62.738 101.529 65.3677 100.539 67.7576C99.5487 70.1474 97.8723 72.19 95.7215 73.6271C93.5706 75.0642 91.0419 75.8313 88.4551 75.8313C84.9864 75.8313 81.6597 74.4534 79.2069 72.0006C76.7541 69.5479 75.3761 66.2212 75.3761 62.7526ZM59.3906 174.648C56.8038 174.648 54.2751 173.881 52.1243 172.444C49.9735 171.007 48.2971 168.965 47.3072 166.575C46.3172 164.185 46.0582 161.555 46.5629 159.018C47.0676 156.481 48.3132 154.151 50.1424 152.322C51.9715 150.493 54.3019 149.247 56.839 148.742C59.3761 148.238 62.0059 148.497 64.3958 149.487C66.7856 150.476 68.8283 152.153 70.2654 154.304C71.7026 156.454 72.4697 158.983 72.4697 161.57C72.4697 165.038 71.0917 168.365 68.6389 170.818C66.1861 173.271 62.8594 174.648 59.3906 174.648ZM111.707 128.146C109.12 128.146 106.591 127.379 104.44 125.942C102.29 124.505 100.613 122.462 99.6233 120.073C98.6334 117.683 98.3744 115.053 98.879 112.516C99.3837 109.979 100.629 107.649 102.458 105.819C104.288 103.99 106.618 102.745 109.155 102.24C111.692 101.735 114.322 101.994 116.712 102.984C119.102 103.974 121.144 105.651 122.582 107.801C124.019 109.952 124.786 112.481 124.786 115.068C124.786 118.536 123.408 121.863 120.955 124.316C118.502 126.768 115.176 128.146 111.707 128.146ZM164.023 168.836C161.436 168.836 158.907 168.069 156.757 166.632C154.606 165.194 152.929 163.152 151.939 160.762C150.95 158.372 150.691 155.742 151.195 153.205C151.7 150.668 152.946 148.338 154.775 146.509C156.604 144.68 158.934 143.434 161.471 142.93C164.008 142.425 166.638 142.684 169.028 143.674C171.418 144.664 173.461 146.34 174.898 148.491C176.335 150.642 177.102 153.17 177.102 155.757C177.102 159.226 175.724 162.552 173.271 165.005C170.818 167.458 167.492 168.836 164.023 168.836Z" fill="white"/>
<path d="M281.573 151.473V141.914H296.554C299.128 141.914 301.058 141.271 302.345 139.984C303.632 138.759 304.275 136.982 304.275 134.653V130.885L304.459 121.418H301.977L304.459 118.937C304.459 123.042 303.233 126.259 300.782 128.587C298.393 130.854 295.145 131.988 291.04 131.988C285.893 131.988 281.788 130.242 278.724 126.749C275.721 123.256 274.22 118.538 274.22 112.595V102.76C274.22 96.8781 275.721 92.1907 278.724 88.6981C281.788 85.2055 285.893 83.4592 291.04 83.4592C295.145 83.4592 298.393 84.6234 300.782 86.9518C303.233 89.2189 304.459 92.4051 304.459 96.5105L301.977 94.0289H304.459L304.183 84.3783H315.672V134.929C315.672 140.015 313.987 144.028 310.617 146.969C307.247 149.972 302.621 151.473 296.738 151.473H281.573ZM294.9 122.062C297.841 122.062 300.108 121.204 301.701 119.488C303.356 117.711 304.183 115.26 304.183 112.135V103.312C304.183 100.187 303.356 97.7666 301.701 96.0509C300.108 94.274 297.841 93.3855 294.9 93.3855C291.959 93.3855 289.692 94.2433 288.099 95.959C286.506 97.6747 285.709 100.126 285.709 103.312V112.135C285.709 115.321 286.506 117.772 288.099 119.488C289.692 121.204 291.959 122.062 294.9 122.062ZM328.595 134.929V84.3783H339.441V94.0289H342.29L338.889 99.9111C338.889 94.4578 340.115 90.3525 342.566 87.5952C345.017 84.8378 348.632 83.4592 353.411 83.4592C358.864 83.4592 363.153 85.1442 366.278 88.5143C369.403 91.8843 370.966 96.5411 370.966 102.485V106.161H358.926V103.312C358.926 100.064 358.068 97.5521 356.352 95.7752C354.698 93.9982 352.4 93.1098 349.459 93.1098C346.456 93.1098 344.128 93.9982 342.474 95.7752C340.881 97.5521 340.084 100.064 340.084 103.312V134.929H328.595ZM394.275 135.848C389.067 135.848 384.962 134.469 381.959 131.712C378.957 128.955 377.456 125.248 377.456 120.591C377.456 115.628 379.11 111.798 382.419 109.102C385.728 106.406 390.415 105.058 396.481 105.058H409.073V100.738C409.073 98.2874 408.276 96.3879 406.683 95.0399C405.09 93.6306 402.915 92.926 400.157 92.926C397.645 92.926 395.562 93.4774 393.908 94.5803C392.253 95.6833 391.273 97.1845 390.966 99.0839H379.753C380.305 94.3046 382.449 90.5056 386.187 87.6871C389.925 84.8685 394.704 83.4592 400.525 83.4592C406.714 83.4592 411.585 85.0217 415.139 88.1466C418.754 91.2103 420.562 95.3769 420.562 100.646V134.929H409.44V126.106H407.602L409.44 123.624C409.44 127.362 408.062 130.333 405.304 132.539C402.547 134.745 398.871 135.848 394.275 135.848ZM398.043 127.208C401.291 127.208 403.926 126.381 405.948 124.727C408.031 123.073 409.073 120.928 409.073 118.293V112.135H396.665C394.336 112.135 392.468 112.809 391.058 114.157C389.649 115.505 388.944 117.282 388.944 119.488C388.944 121.878 389.741 123.777 391.334 125.186C392.988 126.534 395.225 127.208 398.043 127.208ZM431.739 151.473V84.3783H442.952V94.0289H445.525L442.952 96.6943C442.952 92.5889 444.177 89.3721 446.628 87.0437C449.079 84.654 452.388 83.4592 456.554 83.4592C461.64 83.4592 465.715 85.2055 468.779 88.6981C471.842 92.1907 473.374 96.8781 473.374 102.76V116.455C473.374 120.376 472.669 123.808 471.26 126.749C469.912 129.629 467.982 131.865 465.47 133.458C462.958 135.052 459.986 135.848 456.554 135.848C452.388 135.848 449.079 134.684 446.628 132.355C444.177 129.966 442.952 126.718 442.952 122.613L445.525 125.278H442.86L443.227 137.319V151.473H431.739ZM452.51 125.922C455.452 125.922 457.749 125.064 459.404 123.348C461.058 121.633 461.885 119.182 461.885 115.995V103.312C461.885 100.126 461.058 97.6747 459.404 95.959C457.749 94.2433 455.452 93.3855 452.51 93.3855C449.631 93.3855 447.363 94.274 445.709 96.0509C444.055 97.7666 443.227 100.187 443.227 103.312V115.995C443.227 119.12 444.055 121.571 445.709 123.348C447.363 125.064 449.631 125.922 452.51 125.922ZM484.092 134.929V67.8344H495.58V84.3783L495.305 94.0289H498.43L495.305 96.6943C495.305 92.5277 496.5 89.2802 498.889 86.9518C501.34 84.6234 504.68 83.4592 508.907 83.4592C513.871 83.4592 517.823 85.1136 520.764 88.4223C523.766 91.7311 525.267 96.1734 525.267 101.749V134.929H513.779V102.944C513.779 99.8805 512.982 97.5215 511.389 95.8671C509.796 94.2127 507.559 93.3855 504.68 93.3855C501.861 93.3855 499.624 94.2433 497.97 95.959C496.377 97.6747 495.58 100.126 495.58 103.312V134.929H484.092ZM560.249 134.929C555.225 134.929 551.426 133.428 548.852 130.425C546.34 127.423 545.482 123.471 546.279 118.569L552.621 78.2203H537.18L538.834 67.8344H565.764L557.768 118.569C557.461 120.407 557.737 121.878 558.595 122.981C559.514 124.022 560.862 124.543 562.639 124.543H578.264L576.701 134.929H560.249ZM584.478 134.929L586.132 124.451H603.779L608.558 94.7642H593.117L594.772 84.3783H621.058L614.808 124.451H630.433L628.779 134.929H584.478ZM616.279 75.9225C613.95 75.9225 612.204 75.3405 611.04 74.1763C609.876 72.9508 609.447 71.327 609.753 69.305C610.121 67.283 611.07 65.6899 612.602 64.5257C614.134 63.3002 616.064 62.6875 618.393 62.6875C620.66 62.6875 622.375 63.3002 623.54 64.5257C624.765 65.6899 625.194 67.283 624.826 69.305C624.52 71.327 623.601 72.9508 622.069 74.1763C620.537 75.3405 618.607 75.9225 616.279 75.9225ZM637.106 134.929L645.103 84.3783H656.316L654.753 94.0289H657.878L654.386 96.6943C655.06 92.5277 656.775 89.2802 659.533 86.9518C662.351 84.6234 665.874 83.4592 670.102 83.4592C675.065 83.4592 678.772 85.1136 681.223 88.4223C683.674 91.7311 684.44 96.1734 683.521 101.749L678.282 134.929H666.793L671.849 102.944C672.339 99.8805 671.91 97.5215 670.562 95.8671C669.214 94.2127 667.13 93.3855 664.312 93.3855C661.432 93.3855 659.042 94.2433 657.143 95.959C655.305 97.6747 654.11 100.126 653.558 103.312L648.595 134.929H637.106ZM689.735 134.929L700.397 67.8344H711.886L706.095 104.231H713.448L728.889 84.3783H742.032L722.823 109.286L734.312 134.929H721.628L712.529 113.973H704.533L701.224 134.929H689.735ZM760.011 135.848C754.19 135.848 749.747 134.5 746.684 131.804C743.62 129.108 742.333 125.554 742.823 121.142H754.312C754.19 122.736 754.772 124.022 756.058 125.003C757.406 125.983 759.245 126.473 761.573 126.473H765.525C768.344 126.473 770.55 125.922 772.143 124.819C773.797 123.716 774.747 122.215 774.992 120.315C775.298 118.538 774.9 117.129 773.797 116.087C772.755 114.984 770.948 114.249 768.374 113.881L762.308 112.962C756.671 112.166 752.658 110.695 750.268 108.551C747.94 106.345 747.113 102.975 747.787 98.4406C748.522 93.7225 750.697 90.0461 754.312 87.4113C757.927 84.7766 762.829 83.4592 769.018 83.4592H772.51C778.148 83.4592 782.437 84.7459 785.378 87.3194C788.319 89.8316 789.575 93.2017 789.146 97.4296H777.657C777.719 96.0815 777.167 94.9786 776.003 94.1208C774.839 93.263 773.154 92.834 770.948 92.834H767.455C764.821 92.834 762.829 93.3242 761.481 94.3046C760.133 95.2237 759.306 96.6024 759 98.4406C758.754 100.156 759.061 101.474 759.919 102.393C760.777 103.312 762.37 103.955 764.698 104.323L771.04 105.242C776.922 106.038 781.119 107.601 783.632 109.929C786.144 112.196 787.032 115.628 786.297 120.223C785.5 125.125 783.203 128.955 779.404 131.712C775.666 134.469 770.55 135.848 764.055 135.848H760.011Z" fill="#633BFE"/>
</svg>
